<svg width="24" height="24" viewBox="0 0 24 24" xmlns="http://www.w3.org/2000/svg">
    <g>
        <g transform="matrix(1.01956,0,0,1.02263,-0.391341,-0.430426)">
            <rect x="5.005" y="3.521" width="14.998" height="15.501" fill="#0077B5" />
        </g>
        <pathi fill="#0077B5"  d="M19,0L5,0C2.239,0 0,2.239 0,5L0,19C0,21.761 2.239,24 5,24L19,24C21.762,24 24,21.761 24,19L24,5C24,2.239 21.762,0 19,0ZM8,19L5,19L5,8L8,8L8,19ZM6.5,6.732C5.534,6.732 4.75,5.942 4.75,4.968C4.75,3.994 5.534,3.204 6.5,3.204C7.466,3.204 8.25,3.994 8.25,4.968C8.25,5.942 7.467,6.732 6.5,6.732ZM20,19L17,19L17,13.396C17,10.028 13,10.283 13,13.396L13,19L10,19L10,8L13,8L13,9.765C14.396,7.179 20,6.988 20,12.241L20,19Z" style="fill-rule:nonzero;"/>
    </g>
</svg>
