<?xml version="1.0" encoding="UTF-8"?>
<svg id="Layer_2" data-name="Layer 2" xmlns="http://www.w3.org/2000/svg" viewBox="0 0 199.47 204.12">
  <g id="Layer_1-2" data-name="Layer 1">
    <g>
      <path d="m82.51,115.79c2.06-2.39,4.14-4.76,6.16-7.19.24-.29.25-.92.14-1.32-.31-1.11-.75-2.19-1.14-3.28-1.15-3.18-.42-6.18,1.14-8.97,2.24-4.02,4.53-8.03,7.02-11.89,8.17-12.66,16.82-25,26.17-36.83,2.14-2.71,4.44-5.15,8.13-5.67,3.49-.5,6.99-.6,10.38.32,3.23.87,6.37,2.07,9.51,3.22.65.24,1.34.78,1.68,1.38,3.44,5.96,5.62,12.28,5.16,19.29-.2,3.04-1.18,5.72-3.59,7.79-6.04,5.2-11.91,10.59-18.07,15.64-6.29,5.15-12.75,10.1-19.3,14.92-4,2.94-8.28,5.51-12.48,8.17-2.46,1.56-5.12,1.43-7.81.63q-3.55-1.05-6.02,1.65c-1.18,1.29-2.32,2.61-3.54,3.85-.66.67-.72,1.17,0,1.85,3.6,3.38,7.16,6.81,10.78,10.18.25.23.98.31,1.24.12,2.54-1.87,5.04-3.8,7.5-5.76.22-.17.22-.78.13-1.14-.59-2.36-1.28-4.7-1.8-7.08-.09-.43.32-1.2.73-1.47,4.21-2.79,8.59-5.35,12.7-8.29,5.56-3.99,11.08-8.07,16.34-12.44,7.56-6.28,14.87-12.87,22.32-19.28,1.65-1.42,2.67-3.11,3.15-5.21.38-1.68.7-1.94,2.44-1.86,2.61.12,5.24.2,7.82.57,2.78.4,5.53,1.08,8.27,1.72.42.1,1.01.57,1.06.94.73,5.27,1.3,10.56.07,15.84-.98,4.21-3.39,7.34-7.08,9.66-10.25,6.44-20.35,13.15-30.7,19.43-5.8,3.52-11.98,6.41-18,9.57-3.69,1.94-7.57,2.34-11.59,1.28-1.2-.31-2.12-.07-3.07.73-2.23,1.86-4.52,3.65-6.84,5.4-.93.71-.55,1.18.08,1.77,2.82,2.63,5.63,5.28,8.54,8,.71-.39,1.48-.77,2.21-1.23,2.88-1.82,5.72-3.68,8.61-5.47.82-.51,1.07-1.1,1.03-2.04-.06-1.24-.01-2.5.17-3.72.08-.52.51-1.23.96-1.4,6.95-2.73,13.3-6.61,19.64-10.45,8.52-5.15,16.92-10.49,25.33-15.81,2.45-1.55,4.74-3.35,7.13-4.99,3.67-2.53,5.62-6.13,6.48-10.38.2-.99.58-1.31,1.54-1.26,4.29.24,8.47,1.03,12.54,2.43,3.11,1.07,3.33,1.44,3.61,4.75.28,3.34-.14,6.53-1.69,9.54-.9,1.75-2.14,3.16-3.92,4.03-8.08,3.94-16.15,7.92-24.27,11.79-8.91,4.25-17.84,8.44-26.8,12.58-6.21,2.87-12.54,5.48-18.72,8.42-2.94,1.4-5.65,3.28-8.48,4.93-1.01.59-1.87,1.05-1.74,2.59.13,1.46-2.44,2.47-3.75,1.7-.34-.2-.97-.3-1.27-.11-3.71,2.28-7.38,4.62-11.04,6.98-.21.14-.36.75-.23.95.51.8.21,1.33-.43,1.8-.47.34-.97.64-1.45.97-.72.49-1.34.44-2.01-.16-.28-.25-.96-.41-1.23-.24-3.79,2.31-7.54,4.67-11.3,7.03-1.37.86-2.71,1.77-4.1,2.59-.65.38-.94.76-.49,1.48.57.91.34,1.74-.36,2.49-2.49,2.67-4.99,5.34-7.45,8.03-.6.65-.97.17-1.34-.16-1.77-1.57-3.52-3.16-5.25-4.78-6.49-6.06-12.98-12.13-19.46-18.2-4.9-4.6-9.8-9.21-14.69-13.82-1.93-1.82-3.84-3.67-5.79-5.47-.53-.49-.64-.85-.09-1.43,2.39-2.48,4.75-5,7.11-7.51.83-.88,1.71-1.42,2.97-.85.84.38,1.07-.36,1.35-.89,2.29-4.23,4.57-8.47,6.86-12.7.39-.73.76-1.48,1.21-2.17.57-.89,1.12-1.72-.16-2.49-.14-.09-.23-.35-.25-.54-.18-1.22,1.62-3.06,2.87-3.06.39,0,.98-.24,1.15-.55,1.97-3.55,3.87-7.15,5.82-10.71.44-.81.64-1.43-.11-2.22-.88-.93-.03-1.84.42-2.59.27-.45,1.06-.9,1.56-.84.91.11,1.16-.3,1.57-.95,5.22-8.31,7.7-17.77,11.3-26.75,7.12-17.77,14.12-35.59,21.1-53.41,1.9-4.86,5.78-6.85,10.52-7.6,1.77-.28,3.64-.04,5.46.04,1.13.05,1.82.64,2.29,1.75,1.85,4.3,2.93,8.79,3.73,13.38.18,1.04-.02,1.64-1.23,1.92-4.63,1.1-8.14,3.69-10.48,7.92-4.76,8.6-9.74,17.08-14.41,25.72-3.35,6.2-6.41,12.57-9.44,18.93-1.23,2.58-2.09,5.33-3.04,8.03-.38,1.08-.95,1.65-2.13,1.69-1.2.04-2.41.15-3.58.39-.52.11-1.13.52-1.4.98-1.97,3.41-3.87,6.86-5.78,10.31-.28.5-.49.98.13,1.53,2.65,2.39,5.25,4.84,7.87,7.25.39.36.83.65,1.3,1.02,1.82-2.62,3.5-5.19,5.33-7.64.93-1.24,1.22-2.36.76-3.87-1.21-3.99-.85-7.89.71-11.79,3.68-9.22,7.97-18.15,12.72-26.85,4.45-8.16,9.17-16.16,13.69-24.28,2.5-4.49,6.58-6.56,11.33-7.18,4.05-.53,8.19-.36,12.29-.48.83-.03,1.35.34,1.64,1.2,1.81,5.42,3.01,10.96,3.18,16.69.02.62.13,1.33-.72,1.49-3.77.7-5.89,3.53-8.08,6.24-8.77,10.86-16.69,22.34-24.4,33.95-3.67,5.52-7.32,11.09-9.91,17.25-.38.89-.87,1.31-1.9,1.09-2.34-.52-4.69-.99-7.05-1.42-.3-.06-.82.1-.98.34-1.68,2.47-3.31,4.97-4.96,7.46-.31.47-.58.88-.02,1.4,3.77,3.51,7.52,7.04,11.28,10.56.14.13.35.19.53.29.14.12.29.23.43.35Zm-3.44,28.73c-.77-.65-1.35-1.12-1.9-1.62-2.41-2.22-4.81-4.45-7.2-6.69-.56-.52-.97-.7-1.62.01-3.83,4.19-7.71,8.35-11.62,12.47-.59.62-.7,1.01-.07,1.61,1.18,1.11,2.32,2.25,3.49,3.37,1.07,1.03,2.14,2.05,3.19,3.05,5.28-4.1,10.44-8.1,15.72-12.2Zm-22.75-20.68c-.22.29-.51.63-.77,1.01-3.27,4.74-6.53,9.49-9.82,14.21-.49.71-.09,1.04.35,1.44,1.97,1.83,3.96,3.65,5.91,5.51.62.59,1.13.56,1.69-.04.99-1.06,1.99-2.11,2.98-3.17,3.1-3.34,6.19-6.69,9.2-9.95-3.12-2.95-6.27-5.92-9.53-9Zm10.75-16.01c-2.64,3.87-5.18,7.55-7.65,11.28-.19.28-.04,1.07.23,1.33,2.87,2.76,5.82,5.45,8.71,8.19.64.61,1.02.58,1.61-.06,2.77-2.98,5.57-5.93,8.39-8.87.52-.54.56-.9,0-1.43-2.07-1.92-4.09-3.89-6.16-5.81-1.66-1.55-3.37-3.05-5.12-4.64Zm26.79,25.21c-3.87-3.65-7.57-7.15-11.27-10.64-.64-.6-1.08-.17-1.54.34-2.66,2.9-5.32,5.81-8.05,8.65-.69.72-.57,1.1.07,1.7,2.92,2.7,5.8,5.45,8.73,8.14.24.22.89.32,1.12.16,3.64-2.72,7.24-5.5,10.95-8.33Zm-4.13,21.87c-.23-.29-.4-.57-.63-.78-2.15-2.02-4.32-4.01-6.45-6.05-.64-.61-1.12-.3-1.63.1-4.56,3.53-9.11,7.08-13.68,10.6-.71.55-.72,1.01-.08,1.6,1.56,1.43,3.13,2.85,4.63,4.35.66.66,1.22.64,1.95.18,5.25-3.32,10.52-6.62,15.88-9.99Zm-47.54-18.04c.45-.54.88-.97,1.21-1.47,3.19-4.69,6.38-9.39,9.52-14.12.17-.25.04-.95-.2-1.19-1.76-1.76-3.57-3.46-5.38-5.16-.59-.55-1.25-1.03-1.86-1.54-.87,1.63-1.68,3.12-2.48,4.61-2.13,3.98-4.28,7.95-6.38,11.94-.2.37-.32,1.11-.11,1.33,1.81,1.87,3.7,3.66,5.69,5.59Zm64.09,7.83c-.11-.29-.13-.43-.21-.51-2.84-2.6-5.67-5.21-8.56-7.76-.24-.21-.97-.17-1.26.05-3.35,2.51-6.64,5.09-9.97,7.61-.66.5-.6.86-.05,1.37,2.29,2.1,4.57,4.21,6.83,6.35.58.55,1.05.63,1.71.09.9-.73,1.87-1.38,2.85-1.99,2.85-1.75,5.73-3.46,8.65-5.22Zm-51.61-48.49c-.86,1.57-1.61,2.9-2.33,4.24-1.37,2.55-2.65,5.15-4.11,7.65-.49.84-.42,1.28.24,1.89,2.22,2.05,4.43,4.12,6.59,6.24.71.69,1.02.32,1.42-.27,2.37-3.44,4.77-6.87,7.1-10.35.18-.27.01-1.04-.26-1.31-1.51-1.53-3.1-2.99-4.67-4.46-1.26-1.18-2.55-2.33-3.97-3.63Z"/>
      <path d="m63.98,184.74c-5.84,6.1-11.58,12.4-19.31,16.36-6.89,3.53-14,3.99-21.19,1.23-11.26-4.32-18.93-12.18-22.49-23.78-1.81-5.91-1.02-11.71,1.4-17.36,1.79-4.17,4.3-7.85,7.21-11.28,2.54-3,5.14-5.95,7.69-8.89,15.62,14.63,31.09,29.12,46.69,43.73Z"/>
    </g>
  </g>
</svg>